<svg version="1.2" xmlns="http://www.w3.org/2000/svg" viewBox="0 0 128 128" width="128" height="128">
	<title>logo_customtkbuilder</title>
	<style>
		tspan { white-space:pre } 
		.s0 { fill: #111827 } 
		.s1 { fill: #1e293b } 
		.t2 { font-size: 24px;fill: #ef4444;font-weight: 700;font-family: "AvantGarde-Bold", "ITC Avant Garde Gothic" } 
	</style>
	<path id="Forma 1" class="s0" d="m19 2h90c9.4 0 17 7.6 17 17v90c0 9.4-7.6 17-17 17h-90c-9.4 0-17-7.6-17-17v-90c0-9.4 7.6-17 17-17z"/>
	<path id="Forma 1 copy" class="s1" d="m27 10h74c9.3 0 17 7.7 17 17v74c0 9.3-7.7 17-17 17h-74c-9.3 0-17-7.7-17-17v-74c0-9.3 7.7-17 17-17z"/>
	<text id="Tk" style="transform: matrix(3.359,0,0,3.359,19.913,93.827)" >
		<tspan x="0" y="0" class="t2">T</tspan><tspan  y="0" class="t2">k
</tspan>
	</text>
</svg>